G04 #@! TF.FileFunction,Soldermask,Top*
%FSLAX46Y46*%
G04 Gerber Fmt 4.6, Leading zero omitted, Abs format (unit mm)*
G04 Created by KiCad (PCBNEW 4.0.3-stable) date 10/10/16 00:03:39*
%MOMM*%
%LPD*%
G01*
G04 APERTURE LIST*
%ADD10C,0.100000*%
%ADD11R,3.399740X1.901140*%
%ADD12R,1.150000X1.600000*%
%ADD13R,2.200860X3.900120*%
%ADD14R,3.900120X2.200860*%
%ADD15R,1.500000X2.400000*%
%ADD16R,1.300000X1.600000*%
%ADD17R,1.900000X0.850000*%
%ADD18R,2.127200X2.432000*%
%ADD19O,2.127200X2.432000*%
%ADD20R,4.057600X2.432000*%
%ADD21R,1.416000X2.432000*%
%ADD22C,3.100000*%
%ADD23R,1.460000X1.050000*%
G04 APERTURE END LIST*
D10*
D11*
X13174980Y-30734000D03*
X9177020Y-30734000D03*
X23147020Y-34290000D03*
X27144980Y-34290000D03*
D12*
X8636000Y-11496000D03*
X8636000Y-13396000D03*
X20574000Y-12126000D03*
X20574000Y-10226000D03*
D13*
X8890000Y-34965640D03*
X8890000Y-39964360D03*
D14*
X3850640Y-5080000D03*
X8849360Y-5080000D03*
D15*
X16510000Y-30734000D03*
X18510000Y-30734000D03*
X20510000Y-30734000D03*
X22510000Y-30734000D03*
X24510000Y-30734000D03*
X26510000Y-30734000D03*
X28510000Y-30734000D03*
X28510000Y-18634000D03*
X26510000Y-18634000D03*
X24510000Y-18634000D03*
X22510000Y-18634000D03*
X20510000Y-18634000D03*
X18510000Y-18634000D03*
X16510000Y-18634000D03*
D16*
X13970000Y-33444000D03*
X13970000Y-35644000D03*
X6350000Y-13546000D03*
X6350000Y-11346000D03*
X23114000Y-11854000D03*
X23114000Y-14054000D03*
D17*
X17174000Y-13451000D03*
X17174000Y-12801000D03*
X17174000Y-12151000D03*
X17174000Y-11501000D03*
X17174000Y-10851000D03*
X17174000Y-10201000D03*
X17174000Y-9551000D03*
X17174000Y-8901000D03*
X11274000Y-8901000D03*
X11274000Y-9551000D03*
X11274000Y-10201000D03*
X11274000Y-10851000D03*
X11274000Y-11501000D03*
X11274000Y-12151000D03*
X11274000Y-12801000D03*
X11274000Y-13451000D03*
D18*
X26670000Y-40005000D03*
D19*
X24130000Y-40005000D03*
X21590000Y-40005000D03*
X19050000Y-40005000D03*
X16510000Y-40005000D03*
X13970000Y-40005000D03*
D18*
X21590000Y-4445000D03*
D19*
X24130000Y-4445000D03*
X26670000Y-4445000D03*
D20*
X11430000Y-20193000D03*
D21*
X11430000Y-26797000D03*
X13716000Y-26797000D03*
X9144000Y-26797000D03*
D22*
X3556000Y-39370000D03*
X29464000Y-10414000D03*
D23*
X23030000Y-7686000D03*
X23030000Y-8636000D03*
X23030000Y-9586000D03*
X25230000Y-9586000D03*
X25230000Y-7686000D03*
M02*
