M48
;DRILL file {KiCad 4.0.3-stable} date 10/10/16 00:05:33
;FORMAT={-:-/ absolute / metric / decimal}
FMAT,2
METRIC,TZ
T1C0.400
T2C1.016
T3C2.700
%
G90
G05
M71
T1
X11.43Y-25.146
X11.938Y-34.544
X12.446Y-18.288
X14.732Y-28.956
X16.256Y-35.56
X16.51Y-27.686
X17.78Y-14.224
X17.78Y-15.24
X18.288Y-8.382
X20.32Y-15.24
X20.32Y-20.32
X21.082Y-14.478
X21.082Y-34.544
X23.876Y-10.414
X24.384Y-16.51
T2
X13.97Y-40.005
X16.51Y-40.005
X19.05Y-40.005
X21.59Y-4.445
X21.59Y-40.005
X24.13Y-4.445
X24.13Y-40.005
X26.67Y-4.445
X26.67Y-40.005
T3
X3.556Y-39.37
X29.464Y-10.414
T0
M30
